<svg xmlns="http://www.w3.org/2000/svg" viewBox="0 0 64 64">
  <defs>
    <linearGradient id="a" x1="8" y1="6" x2="56" y2="58" gradientUnits="userSpaceOnUse">
      <stop stop-color="#b5fae0"/>
      <stop offset=".52" stop-color="#54e6ae"/>
      <stop offset="1" stop-color="#239f91"/>
    </linearGradient>
  </defs>
  <rect width="64" height="64" rx="20" fill="#0b1715"/>
  <path d="M18 17h17c8 0 13 3.5 13 9.2 0 3.5-2.1 6.3-5.7 7.5 4.6 1.1 7.2 4.2 7.2 8.2C49.5 48 44 52 35.1 52H18V17Zm16 13.1c3.3 0 5-1.2 5-3.5 0-2.2-1.7-3.4-5-3.4h-7.3v6.9H34Zm.8 15.5c3.8 0 5.7-1.4 5.7-4.1 0-2.6-1.9-4-5.7-4h-8.1v8.1h8.1Z" fill="url(#a)"/>
</svg>